<svg xmlns="http://www.w3.org/2000/svg" viewBox="0 0 335.26 403.13"><defs><style>.cls-1{fill:#7ed957;}.cls-2{fill:#ff66c4;}</style></defs><g id="Capa_2" data-name="Capa 2"><g id="Capa_1-2" data-name="Capa 1"><path class="cls-1" d="M261.9,0,9.36,25C2.84,26.55-.48,38.68.06,49.38A35,35,0,0,0,9.17,69.65,7.3,7.3,0,0,0,15.32,72l93.35-9.83a5.26,5.26,0,0,1,5.59,6.73C68,225.5,348.22,190.19,279.89,50.24c-4-10.05-14.69-39.45-18-50.24M196,153.23c-35,1.23-65.57-16.29-59.52-41.87,22.38,43.7,97.06,39.93,115.41-4.74C259,131.89,230.92,151.18,196,153.23Z"/><path class="cls-2" d="M325.46,335.21a6.91,6.91,0,0,1-1-1c-5.59-6.83-86.42-68-79.47-73.44,16.55-41.47,82.4-113,60.83-125.33-28.8-16.5-68.6,79-85.73,102.19a5.94,5.94,0,0,1-8.26,1.32c-22.41-15-100.52-111.22-116.53-79.41a14.13,14.13,0,0,0-1.43,7.09c2.34,45.62,90.45,74.12,101.39,106.46a5.94,5.94,0,0,1-.58,4.93l-55.83,93.1c-15,22.67,7.54,43.15,26.15,25a6.54,6.54,0,0,0,.85-1C185.65,365,202.74,332.83,221.59,302a6,6,0,0,1,9-1.47c25.23,21.35,49.35,44.2,75.19,64.75a5,5,0,0,0,.86.58C330.72,379.2,346.45,352.46,325.46,335.21Z"/></g></g></svg>